<svg width="12" height="12" viewBox="0 0 12 12" fill="none" xmlns="http://www.w3.org/2000/svg">
<rect width="12" height="12" fill="white"/>
<path d="M6.0168 2.61C6.4848 2.61 6.8898 2.676 7.2318 2.808C7.5798 2.94 7.8948 3.141 8.1768 3.411L7.4928 4.212C7.0668 3.864 6.6108 3.69 6.1248 3.69C5.8668 3.69 5.6628 3.744 5.5128 3.852C5.3628 3.954 5.2878 4.104 5.2878 4.302C5.2878 4.44 5.3208 4.554 5.3868 4.644C5.4528 4.728 5.5698 4.809 5.7378 4.887C5.9058 4.965 6.1578 5.058 6.4938 5.166C7.1298 5.37 7.5978 5.622 7.8978 5.922C8.19781 6.216 8.34781 6.636 8.34781 7.182C8.34781 7.572 8.2488 7.917 8.0508 8.217C7.8528 8.511 7.5678 8.742 7.1958 8.91C6.8238 9.072 6.3828 9.153 5.8728 9.153C5.3628 9.153 4.9098 9.072 4.5138 8.91C4.1238 8.748 3.7878 8.532 3.5058 8.262L4.2528 7.443C4.4928 7.647 4.7388 7.8 4.9908 7.902C5.2488 8.004 5.5278 8.055 5.8278 8.055C6.1338 8.055 6.3738 7.989 6.5478 7.857C6.7278 7.719 6.8178 7.53 6.8178 7.29C6.8178 7.134 6.7848 7.005 6.7188 6.903C6.6528 6.795 6.5388 6.699 6.3768 6.615C6.2148 6.531 5.9808 6.441 5.6748 6.345C4.9848 6.135 4.4928 5.877 4.1988 5.571C3.9108 5.265 3.7668 4.878 3.7668 4.41C3.7668 4.05 3.8628 3.735 4.0548 3.465C4.2468 3.189 4.5138 2.979 4.8558 2.835C5.1978 2.685 5.5848 2.61 6.0168 2.61Z" fill="#656EC2"/>
</svg>
